<svg xmlns="http://www.w3.org/2000/svg" xmlns:xlink="http://www.w3.org/1999/xlink" id="Layer_1" x="0px" y="0px" viewBox="0 0 225.5 84.1" style="enable-background:new 0 0 225.5 84.1;" xml:space="preserve">
<style type="text/css">
	.st0{fill:url(#SVGID_1_);}
	.st1{opacity:0.24;}
	.st2{fill:#0078A6;}
	.st3{fill:#FFFFFF;}
</style>
<g>
	<g>
		<linearGradient id="SVGID_1_" gradientUnits="userSpaceOnUse" x1="110.8283" y1="7.647" x2="110.8283" y2="68.661">
			<stop offset="0" style="stop-color:#EAF4F8"></stop>
			<stop offset="8.288769e-02" style="stop-color:#7ECBEC"></stop>
			<stop offset="0.5107" style="stop-color:#0094C6"></stop>
			<stop offset="0.8663" style="stop-color:#0078A6"></stop>
			<stop offset="1" style="stop-color:#006691"></stop>
		</linearGradient>
		<path class="st0" d="M9,27.3c0,0-1.3-16.1,14.3-16.1h177.1c0,0,12.2,0.3,12.2,13.6v44.5c0,0,0.5,12.8-10.9,12.8    c-11.4,0-29.5-4.2-31.7-11.7c0,0-4.7,5.8-16.2,5.8S99.8,71.1,77,72.6S9,87.5,9,61.9S9,27.3,9,27.3z"></path>
		<g class="st1">
			<path class="st2" d="M30.5,50.7C33,51.9,36.8,53,40.6,53c4.2,0,6.4-1.6,6.4-4c0-2.3-1.9-3.6-6.8-5.2c-6.7-2.1-11.1-5.5-11.1-10.8     c0-6.2,5.7-11,15.2-11c4.5,0,7.9,0.9,10.3,1.8l-2,6.7c-1.6-0.7-4.5-1.7-8.4-1.7s-5.9,1.6-5.9,3.5c0,2.3,2.3,3.4,7.5,5.2     c7.1,2.4,10.5,5.8,10.5,10.9c0,6.1-5.2,11.4-16.3,11.4c-4.6,0-9.1-1.1-11.4-2.2L30.5,50.7z"></path>
			<path class="st2" d="M71.6,22.6v21.1c0,6.3,2.6,9.5,7.3,9.5c4.8,0,7.4-3,7.4-9.5V22.6h9.1v20.5c0,11.3-6.3,16.7-16.8,16.7     c-10.2,0-16.1-5.1-16.1-16.8V22.6H71.6z"></path>
			<path class="st2" d="M103.3,22.6h24.6v6.8h-15.5v8.4h14.5v6.7h-14.5v14.7h-9.1V22.6z"></path>
			<path class="st2" d="M134.8,22.6h24.6v6.8h-15.5v8.4h14.5v6.7h-14.5v14.7h-9.1V22.6z"></path>
			<path class="st2" d="M175.6,59.3v-15l-12.7-21.6h10.4l4.1,8.8c1.3,2.7,2.1,4.6,3.1,7h0.1c0.9-2.3,1.9-4.4,3-7l4.1-8.8H198     L184.7,44v17L175.6,59.3z"></path>
		</g>
		<g>
			<path class="st3" d="M28.7,49.8c2.5,1.1,6.2,2.3,10.1,2.3c4.2,0,6.4-1.6,6.4-4c0-2.3-1.9-3.6-6.8-5.2     c-6.7-2.1-11.1-5.5-11.1-10.8c0-6.2,5.7-11,15.2-11c4.5,0,7.9,0.9,10.3,1.8l-2,6.7c-1.6-0.7-4.5-1.7-8.4-1.7s-5.9,1.6-5.9,3.5     c0,2.3,2.3,3.4,7.5,5.2c7.1,2.4,10.5,5.8,10.5,10.9c0,6.1-5.2,11.4-16.3,11.4c-4.6,0-9.1-1.1-11.4-2.2L28.7,49.8z"></path>
			<path class="st3" d="M69.7,21.7v21.1c0,6.3,2.6,9.5,7.3,9.5c4.8,0,7.4-3,7.4-9.5V21.7h9.1v20.5c0,11.3-6.3,16.7-16.8,16.7     c-10.2,0-16.1-5.1-16.1-16.8V21.7H69.7z"></path>
			<path class="st3" d="M101.4,21.7H126v6.8h-15.5v8.4H125v6.7h-14.5v14.7h-9.1V21.7z"></path>
			<path class="st3" d="M132.9,21.7h24.6v6.8H142v8.4h14.5v6.7H142v14.7h-9.1V21.7z"></path>
			<path class="st3" d="M173.7,58.3v-15L161,21.7h10.4l4.1,8.8c1.3,2.7,2.1,4.6,3.1,7h0.1c0.9-2.3,1.9-4.4,3-7l4.1-8.8h10.2     l-13.3,21.4v17L173.7,58.3z"></path>
		</g>
	</g>
	<g>
		<g>
			<path d="M215.5,5.1c0.3-0.1,0.8-0.1,1.3-0.1c0.7,0,1.2,0.1,1.5,0.4c0.3,0.2,0.4,0.6,0.4,0.9c0,0.7-0.4,1.1-1,1.3v0     c0.4,0.1,0.6,0.5,0.8,1c0.2,0.7,0.3,1.2,0.4,1.4h-0.7c-0.1-0.1-0.2-0.6-0.4-1.2c-0.2-0.7-0.4-0.9-1.1-1h-0.6V10h-0.7V5.1z      M216.2,7.3h0.7c0.7,0,1.2-0.4,1.2-0.9c0-0.6-0.5-0.9-1.2-0.9c-0.3,0-0.6,0-0.7,0.1V7.3z"></path>
		</g>
		<path d="M217.2,12.3c-2.7,0-4.8-2.2-4.8-4.8s2.2-4.8,4.8-4.8c2.7,0,4.8,2.2,4.8,4.8S219.9,12.3,217.2,12.3z M217.2,3.1    c-2.4,0-4.3,1.9-4.3,4.3s1.9,4.3,4.3,4.3c2.4,0,4.3-1.9,4.3-4.3S219.6,3.1,217.2,3.1z"></path>
	</g>
</g>
</svg>